<?xml version="1.0" standalone="no"?>
<!DOCTYPE svg PUBLIC "-//W3C//DTD SVG 20010904//EN" "http://www.w3.org/TR/2001/REC-SVG-20010904/DTD/svg10.dtd">
<!-- Created using Krita: https://krita.org -->
<svg xmlns="http://www.w3.org/2000/svg" 
    xmlns:xlink="http://www.w3.org/1999/xlink"
    xmlns:krita="http://krita.org/namespaces/svg/krita"
    xmlns:sodipodi="http://sodipodi.sourceforge.net/DTD/sodipodi-0.dtd"
    width="30.72pt"
    height="30.72pt"
    viewBox="0 0 30.72 30.72">
<defs/>
<path id="shape0" transform="translate(22.5300000032971, 8.89499960641698)" fill="#ffffff" fill-rule="evenodd" stroke-opacity="0" stroke="#000000" stroke-width="0" stroke-linecap="square" stroke-linejoin="bevel" d="M0.245228 0.148727C0.351794 0.070425 0.409527 0.0691589 0.579239 0.0372551C0.932572 -0.029167 1.44301 0.0141687 2.04626 0.0108363C2.63214 0.00248614 3.16617 0.0139543 3.60014 0.0302097C3.73762 0.0613411 3.76343 0.107883 3.84517 0.167947C3.93311 0.232564 3.96315 0.346806 3.93528 0.510673C3.9429 1.29927 3.95864 2.35904 3.9825 3.69L0 3.69C0.0519444 2.216 0.0749072 1.15251 0.0688884 0.499554C0.0682376 0.352527 0.127017 0.235585 0.245228 0.148727Z" sodipodi:nodetypes="csccsccccs"/><rect id="shape1" transform="translate(8.91000000117344, 6.86999998239846)" fill="#639bff" fill-rule="evenodd" width="11.88" height="6" rx="1.38375083522927" ry="1.38375083522927"/><rect id="shape2" transform="translate(1.05000018657628, 10.6200000086052)" fill="#639bff" fill-rule="evenodd" width="28.6199996268474" height="16.2" rx="3.18000074889617" ry="3.18000074889617"/><ellipse id="shape3" transform="translate(9.42000000234689, 13.2)" rx="5.76" ry="5.76" cx="5.76" cy="5.76" fill="#ffffff" fill-rule="evenodd"/><text id="shape4" krita:useRichText="true" text-rendering="auto" krita:textVersion="3" transform="translate(16.0199993136954, 12.6)" fill="#ffffff" stroke-opacity="0" stroke="#000000" stroke-width="0" stroke-linecap="square" stroke-linejoin="bevel" letter-spacing="0" style="text-align: start;text-align-last: auto;font-family: Segoe UI;font-size: 11;"><tspan x="0">2D</tspan></text>
</svg>
